<?xml version="1.0" encoding="UTF-8" standalone="no"?>
<svg
   xmlns:dc="http://purl.org/dc/elements/1.1/"
   xmlns:cc="http://creativecommons.org/ns#"
   xmlns:rdf="http://www.w3.org/1999/02/22-rdf-syntax-ns#"
   xmlns:svg="http://www.w3.org/2000/svg"
   xmlns="http://www.w3.org/2000/svg"
   viewBox="0 0 1193.4667 314.93332"
   height="314.93332"
   width="1193.4667"
   xml:space="preserve"
   id="svg2"
   version="1.1"><metadata
     id="metadata8"><rdf:RDF><cc:Work
         rdf:about=""><dc:format>image/svg+xml</dc:format><dc:type
           rdf:resource="http://purl.org/dc/dcmitype/StillImage" /></cc:Work></rdf:RDF></metadata><defs
     id="defs6"><clipPath
       id="clipPath20"
       clipPathUnits="userSpaceOnUse"><path
         id="path18"
         d="M 0,2361.99 V 0 h 8950.96 v 2361.99 z" /></clipPath></defs><g
     transform="matrix(1.3333333,0,0,-1.3333333,0,314.93333)"
     id="g10"><g
       transform="scale(0.1)"
       id="g12"><g
         id="g14"><g
           clip-path="url(#clipPath20)"
           id="g16"><path
             id="path22"
             style="fill:#4199d2;fill-opacity:1;fill-rule:nonzero;stroke:none"
             d="M 304.762,1181.07 1485.68,2324.01 h 457.3 L 723.926,1181.07 1942.98,38.1289 h -457.3 z M 0,2324.01 H 304.762 V 38.1289 L 0,38.1289 V 2324.01" /><path
             id="path24"
             style="fill:#4199d2;fill-opacity:1;fill-rule:nonzero;stroke:none"
             d="m 2285.88,38.1289 h 304.762 v 2285.88 H 2285.88 Z" /><path
             id="path26"
             style="fill:#4199d2;fill-opacity:1;fill-rule:nonzero;stroke:none"
             d="m 3403.86,118.121 c -176.41,78.75 -320.58,191.758 -432.19,339.02 l 228.5,190.519 c 7.44,-7.601 46.81,-47.59 118.12,-119.988 71,-72.391 164.32,-133.934 279.96,-184.781 115.64,-50.84 236.86,-76.11 363.98,-76.11 81.23,0 168.04,12.559 260.74,37.981 92.7,25.418 173.93,69.297 243.99,131.457 69.77,62.16 104.79,145.402 104.79,249.582 0,76.109 -29.45,139.039 -87.73,188.5 -58.6,49.597 -130.21,88.359 -215.17,116.258 -85.25,27.901 -204,60.921 -356.23,99.051 -185.4,45.73 -335.45,88.83 -449.55,129.6 -114.4,40.46 -212.06,100.91 -293.29,180.9 -81.54,79.99 -122.15,184.78 -122.15,314.22 0,116.88 36.89,224.15 110.68,321.97 73.48,97.81 179.51,176.56 318.1,236.24 138.27,59.69 300.11,89.45 485.82,89.45 312.2,0 578.83,-88.83 799.89,-266.63 l -152.54,-228.65 c -93.94,71.15 -190.98,127.12 -291.43,167.73 -100.15,40.61 -218.89,60.92 -355.92,60.92 -84.02,0 -173.62,-13.95 -268.8,-41.86 -95.18,-28.05 -175.79,-70.53 -241.83,-127.73 -66.03,-57.04 -99.21,-127.58 -99.21,-211.44 0,-66.03 26.66,-120.6 79.99,-163.7 53.64,-43.25 120.29,-77.5 200.28,-102.93 79.99,-25.42 190.98,-53.32 333.29,-83.86 192.84,-43.1 349.72,-86.35 470.32,-129.44 120.6,-43.25 224.16,-108.67 310.65,-196.25 86.19,-87.591 129.6,-205.091 129.6,-352.349 0,-210.832 -81.54,-377.781 -243.99,-501.02 C 4470.07,61.5391 4246.53,0 3962.23,0 3766.6,0 3580.58,39.3711 3403.86,118.121" /><path
             id="path28"
             style="fill:#5a9d32;fill-opacity:1;fill-rule:nonzero;stroke:none"
             d="m 8281.88,2179.26 c 62.04,60.06 123.99,120.03 185.92,179.99 C 9099.11,1748.28 9128.92,652.219 8455.64,0 c -61.75,60.4609 -123.48,120.898 -185.45,181.582 271.87,277.59 415.83,608.797 418.11,996.488 2.26,387.75 -137.73,720.62 -406.42,1001.19" /><path
             id="path30"
             style="fill:#5a9d32;fill-opacity:1;fill-rule:nonzero;stroke:none"
             d="m 7917.48,1826.61 c 62.29,60.27 124.41,120.38 186.51,180.46 453.47,-443.85 453.17,-1204.629 -5.61,-1646.82 -61.77,60.469 -123.51,120.922 -185.49,181.602 175.66,178.968 268.16,392.359 268.84,642.178 0.67,249.49 -90.44,463.17 -264.25,642.58" /><path
             id="path32"
             style="fill:#5a9d32;fill-opacity:1;fill-rule:nonzero;stroke:none"
             d="m 7747.08,714.691 c -62.16,60.797 -123.76,121.047 -185.76,181.7 80.54,81.589 122.76,178.339 122.13,292.359 -0.62,113.73 -43.74,209.81 -124.82,290.48 62.46,60.47 124.54,120.56 186.59,180.64 256.24,-240.24 275.53,-681.53 1.86,-945.179" /><path
             id="path34"
             style="fill:#4199d2;fill-opacity:1;fill-rule:nonzero;stroke:none"
             d="M 7133.02,944.551 C 7113.66,868.93 7084.69,795.988 7046.09,725.738 6968.59,584.762 6863.21,472.961 6729.86,390.469 6596.55,307.898 6448.55,266.66 6286.05,266.66 c -162.58,0 -310.51,41.238 -443.86,123.809 -133.31,82.492 -238.73,194.293 -316.18,335.269 -77.49,140.942 -116.22,292.682 -116.22,455.262 0,162.5 38.73,314.31 116.22,455.25 77.45,140.95 182.87,252.7 316.18,335.27 133.35,82.49 281.28,123.8 443.86,123.8 162.5,0 310.5,-41.31 443.81,-123.8 133.35,-82.57 238.73,-194.32 316.23,-335.27 38.59,-70.24 67.56,-143.19 86.92,-218.81 h 310.73 c -25.15,124.32 -70.64,242.36 -136.68,354.07 -106.68,180.28 -250.22,323.81 -430.5,430.5 -180.39,106.64 -377.19,159.98 -590.51,159.98 -213.36,0 -410.19,-53.34 -590.52,-159.98 -180.36,-106.69 -323.81,-250.22 -430.49,-430.5 -106.68,-180.39 -160.02,-377.19 -160.02,-590.51 0,-213.359 53.34,-410.199 160.02,-590.52 106.68,-180.359 250.13,-323.82 430.49,-430.5 C 5875.86,53.3008 6072.69,0 6286.05,0 c 213.32,0 410.12,53.3008 590.51,159.98 180.28,106.68 323.82,250.141 430.5,430.5 66.04,111.668 111.54,229.719 136.69,354.071 h -310.73" /><path
             id="path36"
             style="fill:#5a9d32;fill-opacity:1;fill-rule:nonzero;stroke:none"
             d="m 6761.38,1181 c 0,-252.398 -204.61,-457.012 -457,-457.012 -252.39,0 -457,204.614 -457,457.012 0,252.39 204.61,457 457,457 252.39,0 457,-204.61 457,-457" /><path
             id="path38"
             style="fill:#5a9d32;fill-opacity:1;fill-rule:nonzero;stroke:none"
             d="M 7813.48,1060.23 H 6480.66 c -3.77,0 -6.83,3.05 -6.83,6.82 v 227.89 c 0,3.77 3.06,6.82 6.83,6.82 h 1332.82 c 3.78,0 6.83,-3.05 6.83,-6.82 v -227.89 c 0,-3.77 -3.05,-6.82 -6.83,-6.82" /></g></g></g></g></svg>